<?xml version="1.0" standalone="no"?>
<!DOCTYPE svg PUBLIC "-//W3C//DTD SVG 20010904//EN"
 "http://www.w3.org/TR/2001/REC-SVG-20010904/DTD/svg10.dtd">
<svg version="1.0" xmlns="http://www.w3.org/2000/svg"
 width="2732.000000pt" height="752.000000pt" viewBox="0 0 2732.000000 752.000000"
 preserveAspectRatio="xMidYMid meet">
<metadata>
Created by potrace 1.16, written by Peter Selinger 2001-2019
</metadata>
<g transform="translate(0.000000,752.000000) scale(0.100000,-0.100000)"
fill="#000000" stroke="none">
<path d="M16175 7497 c-120 -57 -229 -83 -417 -101 -107 -11 -144 -18 -170
-35 -18 -11 -58 -33 -88 -48 -71 -35 -164 -37 -266 -5 -93 29 -183 29 -241 1
l-44 -21 -83 21 c-195 49 -378 50 -528 5 -46 -14 -117 -27 -158 -31 -69 -5
-90 -2 -240 41 -282 78 -457 109 -735 125 -82 5 -184 17 -225 27 -92 21 -211
15 -325 -16 -63 -17 -105 -21 -200 -21 -86 1 -163 -6 -273 -24 -84 -14 -189
-25 -235 -25 -86 0 -138 -10 -297 -53 -52 -15 -178 -40 -280 -57 l-185 -31
-92 17 c-118 22 -273 15 -483 -21 -124 -22 -174 -26 -250 -22 -87 6 -103 3
-189 -24 -116 -37 -245 -57 -421 -65 -127 -6 -139 -8 -205 -40 -49 -24 -85
-34 -120 -35 -109 -2 -442 20 -480 32 -27 8 -144 13 -365 14 -272 2 -332 5
-369 19 -69 25 -121 21 -170 -14 -48 -35 -65 -38 -145 -21 -37 8 -85 11 -130
6 -61 -5 -83 -3 -146 19 -51 17 -127 30 -235 40 -88 9 -198 24 -245 32 -61 12
-167 18 -380 21 -162 3 -338 5 -390 6 -52 1 -211 -4 -352 -12 l-257 -15 -106
33 c-96 31 -113 33 -208 29 -101 -3 -103 -4 -165 -45 -92 -61 -135 -67 -376
-54 -213 13 -254 17 -273 33 -26 21 -91 27 -196 17 -180 -16 -249 -40 -325
-113 l-43 -41 -222 -6 c-282 -8 -600 -27 -652 -39 -66 -15 -132 -11 -198 12
-85 29 -248 30 -407 0 -272 -51 -385 -49 -557 8 -107 35 -199 39 -323 16 -131
-25 -300 -46 -460 -55 -124 -8 -184 -17 -300 -46 -195 -50 -264 -47 -398 13
-76 35 -118 46 -225 62 -72 11 -169 29 -215 40 -46 11 -90 20 -98 20 -12 0
-14 -487 -14 -3535 l0 -3535 13660 0 13660 0 0 3590 0 3590 -87 0 c-49 0 -122
-6 -163 -14 -41 -8 -168 -26 -282 -40 -249 -31 -345 -49 -463 -83 -112 -33
-270 -36 -410 -8 -54 10 -145 18 -225 20 -120 2 -146 6 -233 33 -54 17 -133
36 -176 41 -75 10 -530 6 -600 -5 -22 -4 -48 -20 -74 -46 l-40 -40 -71 5 c-39
3 -107 13 -151 21 -113 22 -299 20 -411 -3 -50 -10 -138 -36 -195 -56 -192
-69 -202 -71 -262 -53 -86 27 -136 29 -267 13 -69 -8 -155 -15 -191 -15 -36 0
-137 -7 -225 -16 -214 -22 -303 -20 -386 5 -105 34 -205 42 -352 31 -296 -23
-501 -7 -699 51 -56 17 -140 35 -187 39 -47 5 -141 25 -210 45 -69 20 -199 54
-290 77 -201 48 -217 48 -433 -21 -86 -28 -183 -53 -214 -56 -32 -4 -145 -2
-252 5 -148 8 -201 8 -222 -1 -23 -9 -52 -8 -136 5 -158 23 -503 37 -550 23
-21 -6 -103 -11 -183 -11 -175 -1 -221 10 -400 94 -69 32 -157 68 -197 80 -40
11 -91 29 -114 39 -33 15 -48 17 -71 9 -51 -18 -137 -3 -259 46 -156 61 -223
76 -355 76 -93 0 -127 -5 -200 -27 -118 -35 -196 -35 -294 -1 -41 15 -116 32
-165 37 -50 6 -133 16 -185 22 -190 22 -211 22 -265 -4z"/>
</g>
</svg>
